<?xml version="1.0" encoding="UTF-8" standalone="no"?>
<svg
   xmlns:dc="http://purl.org/dc/elements/1.1/"
   xmlns:cc="http://creativecommons.org/ns#"
   xmlns:rdf="http://www.w3.org/1999/02/22-rdf-syntax-ns#"
   xmlns:svg="http://www.w3.org/2000/svg"
   xmlns="http://www.w3.org/2000/svg"
   version="1.1"
   id="svg2"
   height="100"
   width="100"
   viewBox="0 0 200 200"
   class="huebee-illo">
  <metadata
     id="metadata26">
    <rdf:RDF>
      <cc:Work
         rdf:about="">
        <dc:format>image/svg+xml</dc:format>
        <dc:type
           rdf:resource="http://purl.org/dc/dcmitype/StillImage" />
        <dc:title></dc:title>
      </cc:Work>
    </rdf:RDF>
  </metadata>
  <defs
     id="defs24" />
  <path
     id="path12"
     d="M140 90c0-22-18-40-39-40C78 50 60 68 60 91V110c0 14 5 27 15 37             l25 25l25-25c10-10 15-23 15-37V90z"
     stroke-width="15"
     fill="none"
     stroke="#333"
     class="huebee-illo__line" />
  <path
     id="path14"
     d="M60 74v50c0 11-9 21-21 21h0c-18 0-27-22-15-35L60 74z"
     stroke-width="15"
     fill="none"
     stroke="#333"
     class="huebee-illo__line" />
  <path
     id="path16"
     d="M140 74v50c0 11 9 21 21 21h0c18 0 27-22 15-35L140 74z"
     stroke-width="15"
     fill="none"
     stroke="#333"
     class="huebee-illo__line" />
  <line
     id="line18"
     y2="50"
     x2="80"
     y1="30"
     x1="60"
     stroke-linecap="round"
     stroke-width="15"
     fill="none"
     stroke="#333"
     class="huebee-illo__line huebee-illo__antenna" />
  <line
     id="line20"
     y2="50"
     x2="120"
     y1="30"
     x1="140"
     stroke-linecap="round"
     stroke-width="15"
     fill="none"
     stroke="#333"
     class="huebee-illo__line huebee-illo__antenna" />
</svg>
